<?xml version="1.0" encoding="UTF-8" standalone="no"?>
<!DOCTYPE svg PUBLIC "-//W3C//DTD SVG 1.1//EN"
 "http://www.w3.org/Graphics/SVG/1.1/DTD/svg11.dtd">
<!-- Generated by graphviz version 12.1.0 (20240811.2233)
 -->
<!-- Pages: 1 -->
<svg width="939pt" height="476pt"
 viewBox="0.00 0.00 938.83 476.00" xmlns="http://www.w3.org/2000/svg" xmlns:xlink="http://www.w3.org/1999/xlink">
<g id="graph0" class="graph" transform="scale(1 1) rotate(0) translate(4 472)">
<polygon fill="white" stroke="none" points="-4,4 -4,-472 934.83,-472 934.83,4 -4,4"/>
<!-- [root] @acme/core#topo -->
<g id="node1" class="node">
<title>[root] @acme/core#topo</title>
<ellipse fill="none" stroke="black" cx="213.83" cy="-378" rx="102.53" ry="18"/>
<text text-anchor="middle" x="213.83" y="-372.95" font-family="Times,serif" font-size="14.00">[root] @acme/core#topo</text>
</g>
<!-- [root] @acme/db#topo -->
<g id="node2" class="node">
<title>[root] @acme/db#topo</title>
<ellipse fill="none" stroke="black" cx="109.83" cy="-306" rx="95.88" ry="18"/>
<text text-anchor="middle" x="109.83" y="-300.95" font-family="Times,serif" font-size="14.00">[root] @acme/db#topo</text>
</g>
<!-- [root] @acme/core#topo&#45;&gt;[root] @acme/db#topo -->
<g id="edge1" class="edge">
<title>[root] @acme/core#topo&#45;&gt;[root] @acme/db#topo</title>
<path fill="none" stroke="black" d="M188.92,-360.23C175.42,-351.14 158.53,-339.77 143.83,-329.88"/>
<polygon fill="black" stroke="black" points="146.05,-327.16 135.8,-324.48 142.14,-332.96 146.05,-327.16"/>
</g>
<!-- [root] @acme/eslint&#45;config#topo -->
<g id="node3" class="node">
<title>[root] @acme/eslint&#45;config#topo</title>
<ellipse fill="none" stroke="black" cx="346.83" cy="-234" rx="133.24" ry="18"/>
<text text-anchor="middle" x="346.83" y="-228.95" font-family="Times,serif" font-size="14.00">[root] @acme/eslint&#45;config#topo</text>
</g>
<!-- [root] @acme/core#topo&#45;&gt;[root] @acme/eslint&#45;config#topo -->
<g id="edge2" class="edge">
<title>[root] @acme/core#topo&#45;&gt;[root] @acme/eslint&#45;config#topo</title>
<path fill="none" stroke="black" d="M229.88,-359.87C253.04,-335.14 296.03,-289.24 322.94,-260.51"/>
<polygon fill="black" stroke="black" points="325.42,-262.99 329.7,-253.29 320.31,-258.2 325.42,-262.99"/>
</g>
<!-- [root] @acme/prettier&#45;config#topo -->
<g id="node4" class="node">
<title>[root] @acme/prettier&#45;config#topo</title>
<ellipse fill="none" stroke="black" cx="463.83" cy="-162" rx="139.89" ry="18"/>
<text text-anchor="middle" x="463.83" y="-156.95" font-family="Times,serif" font-size="14.00">[root] @acme/prettier&#45;config#topo</text>
</g>
<!-- [root] @acme/core#topo&#45;&gt;[root] @acme/prettier&#45;config#topo -->
<g id="edge3" class="edge">
<title>[root] @acme/core#topo&#45;&gt;[root] @acme/prettier&#45;config#topo</title>
<path fill="none" stroke="black" d="M214.24,-359.82C214.46,-349.44 214.72,-335.96 214.83,-324 214.98,-308 216.99,-303.85 214.83,-288 212.59,-271.55 207.08,-268.45 204.83,-252 202.67,-236.15 194.72,-228.4 204.83,-216 222.25,-194.66 280.24,-181.69 336.95,-173.92"/>
<polygon fill="black" stroke="black" points="337.3,-177.4 346.76,-172.63 336.39,-170.46 337.3,-177.4"/>
</g>
<!-- [root] @acme/tsconfig#topo -->
<g id="node5" class="node">
<title>[root] @acme/tsconfig#topo</title>
<ellipse fill="none" stroke="black" cx="463.83" cy="-90" rx="116.35" ry="18"/>
<text text-anchor="middle" x="463.83" y="-84.95" font-family="Times,serif" font-size="14.00">[root] @acme/tsconfig#topo</text>
</g>
<!-- [root] @acme/core#topo&#45;&gt;[root] @acme/tsconfig#topo -->
<g id="edge4" class="edge">
<title>[root] @acme/core#topo&#45;&gt;[root] @acme/tsconfig#topo</title>
<path fill="none" stroke="black" d="M118.75,-370.97C52.89,-362.17 -18.99,-340.63 4.83,-288 44.84,-199.64 81.46,-186.12 168.83,-144 222.88,-117.95 288.09,-104.61 343.44,-97.82"/>
<polygon fill="black" stroke="black" points="343.7,-101.32 353.23,-96.68 342.89,-94.36 343.7,-101.32"/>
</g>
<!-- [root] @acme/db#topo&#45;&gt;[root] @acme/eslint&#45;config#topo -->
<g id="edge5" class="edge">
<title>[root] @acme/db#topo&#45;&gt;[root] @acme/eslint&#45;config#topo</title>
<path fill="none" stroke="black" d="M159.81,-290.24C195.56,-279.68 243.99,-265.38 282.61,-253.97"/>
<polygon fill="black" stroke="black" points="283.17,-257.45 291.77,-251.26 281.19,-250.74 283.17,-257.45"/>
</g>
<!-- [root] @acme/db#topo&#45;&gt;[root] @acme/prettier&#45;config#topo -->
<g id="edge6" class="edge">
<title>[root] @acme/db#topo&#45;&gt;[root] @acme/prettier&#45;config#topo</title>
<path fill="none" stroke="black" d="M116.84,-287.84C126.18,-267.27 144.74,-233.4 171.83,-216 200.48,-197.6 277.35,-184.08 345.03,-175.29"/>
<polygon fill="black" stroke="black" points="345.26,-178.79 354.74,-174.06 344.38,-171.85 345.26,-178.79"/>
</g>
<!-- [root] @acme/db#topo&#45;&gt;[root] @acme/tsconfig#topo -->
<g id="edge7" class="edge">
<title>[root] @acme/db#topo&#45;&gt;[root] @acme/tsconfig#topo</title>
<path fill="none" stroke="black" d="M109.91,-287.51C110.92,-267.88 115.39,-236.15 132.83,-216 190.49,-149.41 287.4,-118.2 361.5,-103.63"/>
<polygon fill="black" stroke="black" points="362.06,-107.09 371.24,-101.79 360.77,-100.21 362.06,-107.09"/>
</g>
<!-- [root] @acme/eslint&#45;config#topo&#45;&gt;[root] @acme/prettier&#45;config#topo -->
<g id="edge8" class="edge">
<title>[root] @acme/eslint&#45;config#topo&#45;&gt;[root] @acme/prettier&#45;config#topo</title>
<path fill="none" stroke="black" d="M375.16,-216.05C390.28,-207.01 409.1,-195.74 425.52,-185.93"/>
<polygon fill="black" stroke="black" points="427.28,-188.95 434.07,-180.81 423.69,-182.94 427.28,-188.95"/>
</g>
<!-- [root] @acme/eslint&#45;config#topo&#45;&gt;[root] @acme/tsconfig#topo -->
<g id="edge9" class="edge">
<title>[root] @acme/eslint&#45;config#topo&#45;&gt;[root] @acme/tsconfig#topo</title>
<path fill="none" stroke="black" d="M331.66,-215.65C317.02,-196.71 299.21,-166.14 314.83,-144 327.51,-126.04 346.82,-114.13 367.39,-106.25"/>
<polygon fill="black" stroke="black" points="368.5,-109.56 376.8,-102.97 366.2,-102.95 368.5,-109.56"/>
</g>
<!-- [root] @acme/prettier&#45;config#topo&#45;&gt;[root] @acme/tsconfig#topo -->
<g id="edge16" class="edge">
<title>[root] @acme/prettier&#45;config#topo&#45;&gt;[root] @acme/tsconfig#topo</title>
<path fill="none" stroke="black" d="M463.83,-143.7C463.83,-136.41 463.83,-127.73 463.83,-119.54"/>
<polygon fill="black" stroke="black" points="467.33,-119.62 463.83,-109.62 460.33,-119.62 467.33,-119.62"/>
</g>
<!-- [root] ___ROOT___ -->
<g id="node9" class="node">
<title>[root] ___ROOT___</title>
<ellipse fill="none" stroke="black" cx="463.83" cy="-18" rx="87.18" ry="18"/>
<text text-anchor="middle" x="463.83" y="-12.95" font-family="Times,serif" font-size="14.00">[root] ___ROOT___</text>
</g>
<!-- [root] @acme/tsconfig#topo&#45;&gt;[root] ___ROOT___ -->
<g id="edge20" class="edge">
<title>[root] @acme/tsconfig#topo&#45;&gt;[root] ___ROOT___</title>
<path fill="none" stroke="black" d="M463.83,-71.7C463.83,-64.41 463.83,-55.73 463.83,-47.54"/>
<polygon fill="black" stroke="black" points="467.33,-47.62 463.83,-37.62 460.33,-47.62 467.33,-47.62"/>
</g>
<!-- [root] @acme/nextjs#topo -->
<g id="node6" class="node">
<title>[root] @acme/nextjs#topo</title>
<ellipse fill="none" stroke="black" cx="467.83" cy="-450" rx="108.67" ry="18"/>
<text text-anchor="middle" x="467.83" y="-444.95" font-family="Times,serif" font-size="14.00">[root] @acme/nextjs#topo</text>
</g>
<!-- [root] @acme/nextjs#topo&#45;&gt;[root] @acme/core#topo -->
<g id="edge10" class="edge">
<title>[root] @acme/nextjs#topo&#45;&gt;[root] @acme/core#topo</title>
<path fill="none" stroke="black" d="M413.34,-433.98C373.74,-423.07 319.98,-408.25 278.24,-396.75"/>
<polygon fill="black" stroke="black" points="279.39,-393.44 268.82,-394.15 277.53,-400.18 279.39,-393.44"/>
</g>
<!-- [root] @acme/nextjs#topo&#45;&gt;[root] @acme/eslint&#45;config#topo -->
<g id="edge11" class="edge">
<title>[root] @acme/nextjs#topo&#45;&gt;[root] @acme/eslint&#45;config#topo</title>
<path fill="none" stroke="black" d="M418.62,-433.56C400.17,-425.31 380.8,-413.21 368.83,-396 341.32,-356.42 340.73,-297.96 343.38,-263.45"/>
<polygon fill="black" stroke="black" points="346.84,-264.1 344.28,-253.82 339.87,-263.45 346.84,-264.1"/>
</g>
<!-- [root] @acme/nextjs#topo&#45;&gt;[root] @acme/prettier&#45;config#topo -->
<g id="edge12" class="edge">
<title>[root] @acme/nextjs#topo&#45;&gt;[root] @acme/prettier&#45;config#topo</title>
<path fill="none" stroke="black" d="M455.3,-431.9C439.21,-408.79 412.16,-365.69 401.83,-324 397.99,-308.47 392.94,-301.3 401.83,-288 425.09,-253.21 465.58,-286.79 488.83,-252 501.25,-233.42 492.77,-208.73 482.45,-190.07"/>
<polygon fill="black" stroke="black" points="485.57,-188.47 477.42,-181.69 479.57,-192.07 485.57,-188.47"/>
</g>
<!-- [root] @acme/nextjs#topo&#45;&gt;[root] @acme/tsconfig#topo -->
<g id="edge14" class="edge">
<title>[root] @acme/nextjs#topo&#45;&gt;[root] @acme/tsconfig#topo</title>
<path fill="none" stroke="black" d="M558.76,-439.78C693.59,-423.54 930.83,-384.04 930.83,-307 930.83,-307 930.83,-307 930.83,-233 930.83,-158.2 708.75,-119.04 570.89,-101.93"/>
<polygon fill="black" stroke="black" points="571.32,-98.46 560.97,-100.72 570.47,-105.41 571.32,-98.46"/>
</g>
<!-- [root] @acme/tailwind&#45;config#topo -->
<g id="node7" class="node">
<title>[root] @acme/tailwind&#45;config#topo</title>
<ellipse fill="none" stroke="black" cx="553.83" cy="-306" rx="143.48" ry="18"/>
<text text-anchor="middle" x="553.83" y="-300.95" font-family="Times,serif" font-size="14.00">[root] @acme/tailwind&#45;config#topo</text>
</g>
<!-- [root] @acme/nextjs#topo&#45;&gt;[root] @acme/tailwind&#45;config#topo -->
<g id="edge13" class="edge">
<title>[root] @acme/nextjs#topo&#45;&gt;[root] @acme/tailwind&#45;config#topo</title>
<path fill="none" stroke="black" d="M478.38,-431.59C493.16,-407.18 520.17,-362.58 537.55,-333.89"/>
<polygon fill="black" stroke="black" points="540.5,-335.77 542.69,-325.41 534.51,-332.15 540.5,-335.77"/>
</g>
<!-- [root] @acme/ui#topo -->
<g id="node8" class="node">
<title>[root] @acme/ui#topo</title>
<ellipse fill="none" stroke="black" cx="808.83" cy="-306" rx="93.83" ry="18"/>
<text text-anchor="middle" x="808.83" y="-300.95" font-family="Times,serif" font-size="14.00">[root] @acme/ui#topo</text>
</g>
<!-- [root] @acme/nextjs#topo&#45;&gt;[root] @acme/ui#topo -->
<g id="edge15" class="edge">
<title>[root] @acme/nextjs#topo&#45;&gt;[root] @acme/ui#topo</title>
<path fill="none" stroke="black" d="M506.62,-432.85C569.17,-406.8 692.19,-355.57 760.41,-327.17"/>
<polygon fill="black" stroke="black" points="761.58,-330.47 769.47,-323.39 758.89,-324.01 761.58,-330.47"/>
</g>
<!-- [root] @acme/tailwind&#45;config#topo&#45;&gt;[root] @acme/eslint&#45;config#topo -->
<g id="edge17" class="edge">
<title>[root] @acme/tailwind&#45;config#topo&#45;&gt;[root] @acme/eslint&#45;config#topo</title>
<path fill="none" stroke="black" d="M505.3,-288.59C475.48,-278.5 437.08,-265.52 405.55,-254.85"/>
<polygon fill="black" stroke="black" points="406.73,-251.56 396.14,-251.67 404.49,-258.19 406.73,-251.56"/>
</g>
<!-- [root] @acme/tailwind&#45;config#topo&#45;&gt;[root] @acme/prettier&#45;config#topo -->
<g id="edge18" class="edge">
<title>[root] @acme/tailwind&#45;config#topo&#45;&gt;[root] @acme/prettier&#45;config#topo</title>
<path fill="none" stroke="black" d="M550.27,-287.8C545.81,-269 536.86,-238.55 521.83,-216 514.9,-205.59 505.49,-195.84 496.27,-187.61"/>
<polygon fill="black" stroke="black" points="498.61,-185.01 488.73,-181.19 494.08,-190.34 498.61,-185.01"/>
</g>
<!-- [root] @acme/tailwind&#45;config#topo&#45;&gt;[root] @acme/tsconfig#topo -->
<g id="edge19" class="edge">
<title>[root] @acme/tailwind&#45;config#topo&#45;&gt;[root] @acme/tsconfig#topo</title>
<path fill="none" stroke="black" d="M570.08,-287.63C597.15,-256.51 645.45,-190.21 612.83,-144 600.16,-126.04 580.85,-114.13 560.28,-106.25"/>
<polygon fill="black" stroke="black" points="561.47,-102.95 550.87,-102.97 559.17,-109.56 561.47,-102.95"/>
</g>
<!-- [root] @acme/ui#topo&#45;&gt;[root] @acme/eslint&#45;config#topo -->
<g id="edge21" class="edge">
<title>[root] @acme/ui#topo&#45;&gt;[root] @acme/eslint&#45;config#topo</title>
<path fill="none" stroke="black" d="M739.88,-293.45C728.51,-291.6 716.85,-289.72 705.83,-288 618.68,-274.38 519.48,-259.8 447.47,-249.39"/>
<polygon fill="black" stroke="black" points="448.05,-245.94 437.65,-247.97 447.05,-252.87 448.05,-245.94"/>
</g>
<!-- [root] @acme/ui#topo&#45;&gt;[root] @acme/prettier&#45;config#topo -->
<g id="edge22" class="edge">
<title>[root] @acme/ui#topo&#45;&gt;[root] @acme/prettier&#45;config#topo</title>
<path fill="none" stroke="black" d="M770.26,-289.12C707.71,-263.38 584.15,-212.52 514.56,-183.88"/>
<polygon fill="black" stroke="black" points="516.26,-180.8 505.68,-180.23 513.6,-187.27 516.26,-180.8"/>
</g>
<!-- [root] @acme/ui#topo&#45;&gt;[root] @acme/tsconfig#topo -->
<g id="edge23" class="edge">
<title>[root] @acme/ui#topo&#45;&gt;[root] @acme/tsconfig#topo</title>
<path fill="none" stroke="black" d="M794.58,-287.81C766.64,-255.18 701.34,-183.96 631.83,-144 604.21,-128.12 571.24,-116.38 541.86,-108.05"/>
<polygon fill="black" stroke="black" points="542.82,-104.69 532.25,-105.42 540.97,-111.44 542.82,-104.69"/>
</g>
</g>
</svg>
